<svg width="285" height="167" viewBox="0 0 285 167" fill="none" xmlns="http://www.w3.org/2000/svg">
<path d="M282.082 17.511L267.808 3.238C265.906 1.332 263.715 0.382004 261.238 0.382004C258.767 0.382004 256.577 1.332 254.675 3.238L142.466 115.441L30.262 3.241C28.359 1.335 26.169 0.385002 23.695 0.385002C21.22 0.385002 19.03 1.335 17.128 3.241L2.856 17.515C0.95 19.417 0 21.607 0 24.082C0 26.555 0.953 28.745 2.856 30.647L135.899 163.693C137.801 165.596 139.992 166.547 142.466 166.547C144.94 166.547 147.127 165.596 149.028 163.693L282.082 30.647C283.984 28.744 284.929 26.554 284.929 24.082C284.929 21.607 283.984 19.417 282.082 17.511Z" fill="#4A4A4A"/>
</svg>
