<svg width="512" height="444" viewBox="0 0 512 444" fill="none" xmlns="http://www.w3.org/2000/svg">
<path d="M494.933 94H145.067C140.354 94 136.533 97.8205 136.533 102.533C136.533 107.246 140.354 111.067 145.067 111.067H196.651C158.781 135.164 136.046 177.116 136.533 222C136.046 266.884 158.781 308.836 196.651 332.933H17.0667V111.067H102.4C107.113 111.067 110.933 107.246 110.933 102.533C110.933 97.8205 107.113 94 102.4 94H17.0667C7.64101 94 0 101.641 0 111.067V332.933C0 342.359 7.64101 350 17.0667 350H494.933C504.359 350 512 342.359 512 332.933V111.067C512 101.641 504.359 94 494.933 94ZM153.6 222C153.6 160.833 199.535 111.067 256 111.067C312.465 111.067 358.4 160.833 358.4 222C358.4 283.167 312.465 332.933 256 332.933C199.535 332.933 153.6 283.167 153.6 222ZM494.933 332.933H315.349C353.22 308.836 375.954 266.884 375.467 222C375.954 177.116 353.22 135.164 315.349 111.067H494.933V332.933Z" fill="#FF6603"/>
<path d="M450.014 1.92536C445.974 -0.0963675 441.297 -0.433919 437.009 0.986691L253.201 62.5888C248.724 64.0875 246.309 68.9319 247.808 73.4091C249.307 77.8863 254.151 80.3008 258.628 78.8022L442.385 17.2L461.244 73.4262C462.212 76.3224 464.651 78.4822 467.643 79.0921C470.636 79.7019 473.726 78.6691 475.75 76.3827C477.774 74.0964 478.425 70.9037 477.457 68.0075L458.59 11.8155C457.184 7.49594 454.091 3.92869 450.014 1.92536V1.92536Z" fill="#FF6603"/>
<path d="M253.372 365.206L69.6149 426.8L50.7563 370.574C49.2599 366.097 44.4175 363.68 39.9403 365.177C35.4631 366.673 33.0466 371.515 34.5429 375.993L53.376 432.168C54.7718 436.479 57.8486 440.045 61.9093 442.058C64.2719 443.233 66.8739 443.846 69.5125 443.85C71.3468 443.852 73.17 443.564 74.9141 442.996L258.722 381.394C263.199 379.896 265.614 375.051 264.115 370.574C262.617 366.097 257.772 363.682 253.295 365.181L253.372 365.206Z" fill="#FF6603"/>
<path d="M281.6 192.133C281.6 196.846 285.421 200.667 290.133 200.667C294.846 200.667 298.667 196.846 298.667 192.133C297.843 173.005 283.491 157.186 264.533 154.51V153.733C264.533 149.021 260.713 145.2 256 145.2C251.287 145.2 247.467 149.021 247.467 153.733V154.51C228.509 157.186 214.157 173.005 213.333 192.133C214.157 211.262 228.509 227.081 247.467 229.757V271.886C237.97 269.732 231.025 261.584 230.4 251.867C230.4 247.154 226.58 243.333 221.867 243.333C217.154 243.333 213.333 247.154 213.333 251.867C214.157 270.995 228.509 286.814 247.467 289.49V290.267C247.467 294.98 251.287 298.8 256 298.8C260.713 298.8 264.533 294.98 264.533 290.267V289.49C283.491 286.814 297.843 270.995 298.667 251.867C297.843 232.738 283.491 216.92 264.533 214.243V172.114C274.03 174.269 280.975 182.416 281.6 192.133ZM230.4 192.133C231.025 182.416 237.97 174.269 247.467 172.114V212.153C237.97 209.998 231.025 201.851 230.4 192.133ZM281.6 251.867C280.975 261.584 274.03 269.732 264.533 271.886V231.848C274.03 234.002 280.975 242.149 281.6 251.867V251.867Z" fill="#FF6603"/>
<path d="M435.2 315.867H469.333C474.046 315.867 477.867 312.046 477.867 307.333V273.2C477.867 268.487 474.046 264.667 469.333 264.667C464.621 264.667 460.8 268.487 460.8 273.2V298.8H435.2C430.487 298.8 426.667 302.621 426.667 307.333C426.667 312.046 430.487 315.867 435.2 315.867Z" fill="#FF6603"/>
<path d="M42.6667 264.667C37.9538 264.667 34.1333 268.487 34.1333 273.2V307.333C34.1333 312.046 37.9538 315.867 42.6667 315.867H76.8C81.5128 315.867 85.3333 312.046 85.3333 307.333C85.3333 302.621 81.5128 298.8 76.8 298.8H51.2V273.2C51.2 268.487 47.3795 264.667 42.6667 264.667Z" fill="#FF6603"/>
<path d="M76.8 128.133H42.6667C37.9538 128.133 34.1333 131.954 34.1333 136.667V170.8C34.1333 175.513 37.9538 179.333 42.6667 179.333C47.3795 179.333 51.2 175.513 51.2 170.8V145.2H76.8C81.5128 145.2 85.3333 141.379 85.3333 136.667C85.3333 131.954 81.5128 128.133 76.8 128.133Z" fill="#FF6603"/>
<path d="M435.2 145.2H460.8V170.8C460.8 175.513 464.621 179.333 469.333 179.333C474.046 179.333 477.867 175.513 477.867 170.8V136.667C477.867 131.954 474.046 128.133 469.333 128.133H435.2C430.487 128.133 426.667 131.954 426.667 136.667C426.667 141.379 430.487 145.2 435.2 145.2Z" fill="#FF6603"/>
</svg>
