<svg height="511pt" viewBox="1 -34 511.99988 511" width="511pt" xmlns="http://www.w3.org/2000/svg"><path d="m262.917969 356.386719c0 11.042969-8.953125 19.992187-19.996094 19.992187h-162.949219c-44.097656 0-79.972656-35.875-79.972656-79.972656v-215.933594c0-44.097656 35.875-79.972656 79.972656-79.972656h351.890625c44.097657 0 79.972657 35.875 79.972657 79.972656v135.957032c0 11.042968-8.949219 19.996093-19.992188 19.996093s-19.992188-8.953125-19.992188-19.996093v-135.957032c0-22.046875-17.941406-39.984375-39.988281-39.984375h-351.890625c-22.046875 0-39.984375 17.9375-39.984375 39.984375v215.933594c0 22.046875 17.9375 39.988281 39.984375 39.988281h162.949219c11.042969 0 19.996094 8.949219 19.996094 19.992188zm-15.226563-101.226563c-30.074218-4.210937-52.753906-32.945312-52.753906-66.84375 0-37.480468 27.355469-67.976562 60.980469-67.976562 31.378906 0 57.457031 26.199218 60.660156 60.9375 1.011719 10.996094 10.738281 19.082031 21.746094 18.074218 10.992187-1.015624 19.085937-10.75 18.070312-21.746093-2.421875-26.261719-13.761719-50.617188-31.933593-68.585938-18.699219-18.484375-43.039063-28.667969-68.542969-28.667969-55.671875 0-100.96875 48.433594-100.96875 107.964844 0 26.09375 8.730469 51.179688 24.585937 70.636719 16.039063 19.683594 38.277344 32.402344 62.617188 35.808594.9375.128906 1.871094.195312 2.796875.195312 9.8125 0 18.375-7.230469 19.773437-17.226562 1.53125-10.933594-6.09375-21.039063-17.03125-22.570313zm167.175782-87.714844c-11.042969 0-19.992188 8.953126-19.992188 19.996094 0 11.042969 8.949219 19.992188 19.992188 19.992188 11.042968 0 19.996093-8.949219 19.996093-19.992188 0-11.042968-8.953125-19.996094-19.996093-19.996094zm-337.890626 19.996094c0 11.042969 8.949219 19.992188 19.992188 19.992188s19.992188-8.949219 19.992188-19.992188c0-11.042968-8.949219-19.996094-19.992188-19.996094s-19.992188 8.953126-19.992188 19.996094zm429.167969 251.058594c-3.902343 3.90625-9.019531 5.859375-14.136719 5.859375-5.117187 0-10.234374-1.953125-14.140624-5.855469l-45.636719-45.636718c-13.761719 8.554687-29.988281 13.503906-47.355469 13.503906-49.609375 0-89.96875-40.363282-89.96875-89.972656 0-49.609376 40.359375-89.96875 89.96875-89.96875 49.613281 0 89.972656 40.359374 89.972656 89.96875 0 17.796874-5.195312 34.40625-14.148437 48.386718l45.445312 45.441406c7.808594 7.808594 7.808594 20.46875 0 28.273438zm-121.265625-72.117188c27.558594 0 49.984375-22.421874 49.984375-49.984374 0-27.558594-22.425781-49.984376-49.984375-49.984376-27.5625 0-49.984375 22.425782-49.984375 49.984376 0 27.5625 22.421875 49.984374 49.984375 49.984374zm0 0"/></svg>