<svg width="474" height="454" viewBox="0 0 474 454" fill="none" xmlns="http://www.w3.org/2000/svg">
<path d="M79.4615 177.769H237C242.445 177.769 246.846 173.368 246.846 167.923C246.846 162.478 242.445 158.077 237 158.077H79.4615C74.0166 158.077 69.6154 162.478 69.6154 167.923C69.6154 173.368 74.0166 177.769 79.4615 177.769Z" fill="#F1CC0B"/>
<path d="M79.4615 246.692H158.231C163.676 246.692 168.077 242.291 168.077 236.846C168.077 231.401 163.676 227 158.231 227H79.4615C74.0166 227 69.6154 231.401 69.6154 236.846C69.6154 242.291 74.0166 246.692 79.4615 246.692Z" fill="#F1CC0B"/>
<path d="M330.893 379.241L369.401 360.002C372.542 358.426 374.61 355.295 374.826 351.78C375.033 348.275 373.359 344.917 370.425 342.968L241.815 258.163C238.861 256.233 235.129 256.016 231.988 257.572C228.847 259.148 226.78 262.279 226.563 265.794L217.327 419.453C217.121 422.958 218.785 426.316 221.729 428.255C224.653 430.205 228.404 430.421 231.555 428.856L270.073 409.617L289.293 448.016C291.016 451.463 294.492 453.461 298.115 453.461C299.454 453.461 300.813 453.196 302.113 452.605L346.253 432.912C348.705 431.82 350.605 429.772 351.511 427.241C352.417 424.711 352.249 421.924 351.048 419.522L330.893 379.241ZM302.694 430.786L283.287 392.012C281.554 388.556 278.088 386.567 274.465 386.567C272.988 386.567 271.481 386.901 270.073 387.601L238.004 403.62L245.192 283.98L345.318 350.018L313.268 366.028C310.935 367.189 309.153 369.237 308.335 371.719C307.508 374.2 307.705 376.898 308.867 379.241L328.825 419.128L302.694 430.786Z" fill="#F1CC0B"/>
<path d="M433.923 0.538452H40.0769C18.3563 0.538452 0.692291 18.2025 0.692291 39.9231V138.385C0.692291 143.83 5.09352 148.231 10.5384 148.231C15.9834 148.231 20.3846 143.83 20.3846 138.385V108.846H335.462C340.906 108.846 345.308 104.445 345.308 99C345.308 93.5551 340.906 89.1538 335.462 89.1538H20.3846V39.9231C20.3846 29.0628 29.2166 20.2308 40.0769 20.2308H433.923C444.783 20.2308 453.615 29.0628 453.615 39.9231V89.1538H384.692C379.247 89.1538 374.846 93.5551 374.846 99C374.846 104.445 379.247 108.846 384.692 108.846H453.615V374.692C453.615 385.553 444.783 394.385 433.923 394.385H374.846C369.401 394.385 365 398.786 365 404.231C365 409.676 369.401 414.077 374.846 414.077H433.923C455.644 414.077 473.308 396.413 473.308 374.692V39.9231C473.308 18.2025 455.644 0.538452 433.923 0.538452Z" fill="#F1CC0B"/>
<path d="M187.769 394.385H40.0769C29.2166 394.385 20.3846 385.553 20.3846 374.692V187.615C20.3846 182.171 15.9834 177.769 10.5384 177.769C5.09352 177.769 0.692291 182.171 0.692291 187.615V374.692C0.692291 396.413 18.3563 414.077 40.0769 414.077H187.769C193.214 414.077 197.615 409.676 197.615 404.231C197.615 398.786 193.214 394.385 187.769 394.385Z" fill="#F1CC0B"/>
</svg>
