<svg width="512" height="512" viewBox="0 0 512 512" fill="none" xmlns="http://www.w3.org/2000/svg">
<path d="M136.965 322.234C141.746 319.477 143.383 313.355 140.625 308.574C137.863 303.797 131.746 302.156 126.965 304.914C122.184 307.676 120.543 313.797 123.305 318.574C126.062 323.355 132.184 324.996 136.965 322.234V322.234Z" fill="#FF6603"/>
<path d="M95.9844 391.254L146.344 478.484C157.211 497.328 181.656 504.305 200.988 493.129C220.117 482.074 226.691 457.633 215.625 438.488L185.625 386.52L211.605 371.52C216.387 368.754 218.027 362.641 215.266 357.859L202.262 335.336C203.812 335.035 214.008 333.035 393.801 297.766C416.027 296.559 429.344 272.25 418.117 252.816L384.883 195.254L406.121 163.086C408.207 159.922 408.332 155.855 406.438 152.574L386.438 117.934C384.543 114.652 380.945 112.73 377.176 112.953L338.703 115.262L301.809 51.3555C296.465 42.0977 286.891 36.4922 276.203 36.3594C276.074 36.3555 275.949 36.3555 275.82 36.3555C265.492 36.3555 256.117 41.4961 250.562 50.1875L119.93 216.602L35.0039 265.633C1.60155 284.91 -9.96876 327.762 9.3828 361.254C27.0625 391.879 64.3359 403.926 95.9844 391.254V391.254ZM198.309 448.492C203.832 458.047 200.562 470.273 190.98 475.809C181.367 481.367 169.125 477.953 163.664 468.488L113.664 381.875L148.305 361.875C206.172 462.117 197.379 446.887 198.309 448.492V448.492ZM175.625 369.195L165.625 351.875L182.945 341.875L192.945 359.195L175.625 369.195ZM372.207 133.285L386.027 157.223L373.703 175.887L349.883 134.625L372.207 133.285ZM267.289 61.1523C269.973 56.7617 274.23 56.3086 275.957 56.3555C277.664 56.375 281.918 56.9063 284.484 61.3516L400.797 262.816C404.586 269.375 399.98 277.621 392.383 277.809C391.02 277.84 390.391 278.086 386.898 278.738L263.863 65.6328C266.445 62.3125 266.777 61.9922 267.289 61.1523V61.1523ZM250.555 82.5859L366.152 282.809L191.691 317.027L138.645 225.148L250.555 82.5859ZM26.7031 351.254C22.3125 343.656 19.9922 335.031 19.9922 326.305C19.9922 308.469 29.5781 291.859 45.0039 282.953L122.945 237.953L172.945 324.555L95.0039 369.559C71.125 383.34 40.4883 375.129 26.7031 351.254V351.254Z" fill="#FF6603"/>
<path d="M105.984 328.574C103.223 323.793 97.1055 322.152 92.3242 324.914L75.0039 334.914C70.2305 337.672 64.1016 336.027 61.3437 331.254C58.582 326.473 52.4648 324.832 47.6836 327.594C42.9023 330.355 41.2617 336.473 44.0234 341.254C52.2539 355.512 70.6133 360.539 85.0039 352.234L102.324 342.234C107.105 339.473 108.746 333.359 105.984 328.574V328.574Z" fill="#FF6603"/>
<path d="M497.137 57.7461L441.414 88.7539C436.59 91.4414 434.852 97.5312 437.539 102.355C440.219 107.176 446.305 108.922 451.141 106.23L506.859 75.2226C511.688 72.5351 513.422 66.4453 510.734 61.6211C508.051 56.793 501.961 55.0586 497.137 57.7461V57.7461Z" fill="#FF6603"/>
<path d="M491.293 161.316L452.656 150.965C447.32 149.535 441.836 152.699 440.406 158.035C438.977 163.371 442.145 168.852 447.48 170.281L486.121 180.633C491.488 182.074 496.945 178.859 498.367 173.563C499.797 168.227 496.629 162.742 491.293 161.316Z" fill="#FF6603"/>
<path d="M394.199 21.4141L383.836 60.0547C382.406 65.3906 385.57 70.8711 390.906 72.3047C396.238 73.7305 401.723 70.5742 403.156 65.2344L413.516 26.5938C414.945 21.2578 411.781 15.7734 406.445 14.3438C401.113 12.9141 395.629 16.0781 394.199 21.4141V21.4141Z" fill="#FF6603"/>
</svg>
