<svg width="470" height="470" viewBox="0 0 470 470" fill="none" xmlns="http://www.w3.org/2000/svg">
<path d="M463.44 113.124L239.44 1.124C236.437 -0.374667 232.896 -0.374667 229.899 1.124L5.89867 113.124C2.28267 114.932 0 118.623 0 122.665V346.665C0 350.708 2.28267 354.399 5.89333 356.207L229.893 468.207C231.397 468.959 233.029 469.332 234.667 469.332C236.304 469.332 237.936 468.959 239.44 468.207L463.44 356.207C467.051 354.399 469.333 350.708 469.333 346.665V122.665C469.333 118.623 467.051 114.932 463.44 113.124V113.124ZM234.667 22.5907L434.816 122.665L392 144.073L191.856 43.9987L234.667 22.5907ZM306.667 186.74L106.517 86.6653L168 55.924L368.149 155.999L306.667 186.74ZM314.667 206.591L378.667 174.591V253.935L358.197 239.316C355.877 237.657 352.976 237.001 350.165 237.487C347.355 237.983 344.853 239.577 343.227 241.924L314.667 283.188V206.591ZM82.6667 98.5907L282.811 198.665L234.667 222.74L34.5173 122.665L82.6667 98.5907ZM21.3333 139.924L224 241.257V441.401L21.3333 340.068V139.924ZM245.333 441.407V241.257L293.333 217.257V317.332C293.333 321.999 296.363 326.121 300.816 327.513C301.872 327.844 302.939 327.999 304 327.999C307.435 327.999 310.741 326.335 312.773 323.407L354.613 262.975L383.141 283.348C386.395 285.668 390.672 285.983 394.219 284.148C397.765 282.324 400 278.66 400 274.665V163.924L448 139.924V340.068L245.333 441.407Z" fill="#FF6603"/>
</svg>
