<svg width="512" height="512" viewBox="0 0 512 512" fill="none" xmlns="http://www.w3.org/2000/svg">
<g clip-path="url(#clip0_1_53)">
<path d="M512 34.88C512.039 25.531 508.431 16.754 501.841 10.164C495.251 3.57401 486.457 -0.0279937 477.126 0.00600634C467.804 0.0450063 459.028 3.70801 452.415 10.32C449.615 13.12 444.522 19.168 441.736 22.525C438.81 26.05 439.294 31.28 442.819 34.205C446.343 37.131 451.573 36.647 454.499 33.122C458.863 27.866 462.47 23.727 464.145 22.051C467.643 18.554 472.277 16.616 477.195 16.595C477.222 16.595 477.247 16.595 477.274 16.595C482.136 16.595 486.693 18.475 490.111 21.894C493.548 25.331 495.431 29.918 495.41 34.81C495.389 39.727 493.451 44.361 489.954 47.86C486.823 50.991 476.061 59.528 460.642 70.299C451.521 54.705 434.605 44.2 415.272 44.2H293.808C277.412 44.2 261.998 50.585 250.403 62.178L7.613 304.971C2.704 309.88 0 316.407 0 323.349C0 330.291 2.704 336.819 7.613 341.727L170.28 504.394C175.348 509.461 182.002 511.994 188.658 511.994C195.314 511.994 201.97 509.46 207.036 504.394L449.828 261.603C461.421 250.009 467.806 234.595 467.806 218.198V96.735C467.806 93.15 467.443 89.65 466.755 86.265C484.306 74.188 497.19 64.085 501.684 59.591C508.298 52.979 511.961 44.203 512 34.88ZM451.217 218.198C451.217 230.163 446.557 241.412 438.098 249.871L195.306 492.664C191.642 496.329 185.676 496.329 182.011 492.664L19.344 329.997C17.569 328.222 16.59 325.861 16.59 323.349C16.59 320.837 17.568 318.477 19.344 316.702L262.135 73.911C270.596 65.451 281.844 60.792 293.808 60.792H415.271C428.911 60.792 440.801 68.429 446.889 79.651C437.091 86.139 426.12 93.038 414.481 99.822C414.118 99.424 413.747 99.03 413.362 98.645C399.778 85.061 377.676 85.061 364.092 98.645C350.508 112.229 350.508 134.331 364.092 147.915C370.884 154.707 379.806 158.102 388.727 158.102C397.648 158.102 406.57 154.707 413.362 147.915C422.429 138.848 425.434 125.989 422.398 114.398C432.521 108.505 442.242 102.482 451.213 96.655C451.214 96.683 451.216 96.709 451.216 96.736V218.198H451.217ZM381.319 127.007C382.776 129.904 385.7 131.576 388.736 131.576C389.989 131.576 391.262 131.291 392.458 130.689C397.32 128.243 402.165 125.699 406.962 123.093C407.01 127.828 405.24 132.578 401.634 136.184C394.518 143.299 382.942 143.299 375.826 136.184C368.711 129.068 368.711 117.492 375.826 110.376C379.384 106.818 384.057 105.04 388.73 105.04C392.43 105.04 396.119 106.174 399.266 108.403C394.571 110.955 389.806 113.454 385.003 115.871C380.908 117.928 379.259 122.915 381.319 127.007Z" fill="#FF6603"/>
<path d="M247.162 168.962C242.581 168.962 238.867 172.675 238.867 177.257V352.436C238.867 357.017 242.581 360.731 247.162 360.731C251.743 360.731 255.457 357.017 255.457 352.436V177.257C255.457 172.675 251.743 168.962 247.162 168.962Z" fill="#FF6603"/>
<path d="M209.231 240.213C195.648 226.627 173.545 226.628 159.963 240.212C146.379 253.796 146.379 275.898 159.963 289.482C166.756 296.275 175.676 299.67 184.598 299.669C193.518 299.669 202.441 296.272 209.232 289.482C215.813 282.901 219.437 274.153 219.437 264.847C219.437 255.541 215.812 246.792 209.231 240.213ZM197.501 277.75C190.385 284.866 178.809 284.865 171.694 277.75C164.579 270.634 164.579 259.058 171.694 251.942C175.252 248.384 179.925 246.606 184.598 246.606C189.271 246.606 193.944 248.384 197.502 251.942C200.949 255.389 202.847 259.971 202.847 264.846C202.846 269.721 200.948 274.303 197.501 277.75Z" fill="#FF6603"/>
<path d="M334.36 240.212C320.776 226.627 298.673 226.628 285.092 240.212C271.508 253.796 271.508 275.898 285.092 289.482C291.884 296.274 300.805 299.669 309.727 299.669C318.648 299.669 327.57 296.274 334.361 289.482C347.944 275.898 347.944 253.796 334.36 240.212ZM322.629 277.75C315.513 284.866 303.937 284.865 296.822 277.75C289.707 270.634 289.707 259.058 296.822 251.942C300.38 248.384 305.053 246.606 309.726 246.606C314.399 246.606 319.072 248.384 322.63 251.942C329.745 259.058 329.745 270.634 322.629 277.75Z" fill="#FF6603"/>
</g>
<defs>
<clipPath id="clip0_1_53">
<rect width="512" height="512" fill="white"/>
</clipPath>
</defs>
</svg>
