<svg height="512pt" viewBox="0 0 512 512" width="512pt" xmlns="http://www.w3.org/2000/svg"><path d="m282.050781 254c1.0625 32.160156 27.535157 58 59.949219 58h110c33.085938 0 60-26.914062 60-60v-40c0-33.085938-26.914062-60-60-60h-110c-33.085938 0-60 26.914062-60 60v2h-148v-54h36c33.085938 0 60-26.914062 60-60v-40c0-33.085938-26.914062-60-60-60h-110c-33.085938 0-60 26.914062-60 60v40c0 33.085938 26.914062 60 60 60h34v214c0 44.113281 35.886719 80 80 80h108.050781c1.0625 32.160156 27.535157 58 59.949219 58h110c11.046875 0 20-8.953125 20-20s-8.953125-20-20-20h-110c-11.027344 0-20-8.972656-20-20v-40c0-11.027344 8.972656-20 20-20h110c11.027344 0 20 8.972656 20 20 0 11.046875 8.953125 20 20 20s20-8.953125 20-20c0-33.085938-26.914062-60-60-60h-110c-33.085938 0-60 26.914062-60 60v2h-108c-22.054688 0-40-17.945312-40-40v-120zm39.949219-42c0-11.027344 8.972656-20 20-20h110c11.027344 0 20 8.972656 20 20v40c0 11.027344-8.972656 20-20 20h-110c-11.027344 0-20-8.972656-20-20zm-282-112v-40c0-11.027344 8.972656-20 20-20h110c11.027344 0 20 8.972656 20 20v40c0 11.027344-8.972656 20-20 20h-110c-11.027344 0-20-8.972656-20-20zm0 0"/></svg>