<svg width="605" height="70" viewBox="0 0 605 70" fill="none" xmlns="http://www.w3.org/2000/svg">
<rect x="17" y="2" width="40" height="67" rx="5.55414" fill="#E640A5"/>
<path fill-rule="evenodd" clip-rule="evenodd" d="M17.1429 19.9955H4.05993C1.81769 19.9955 0 21.8132 0 24.0555V64.8955C0 67.1377 1.81769 68.9554 4.05993 68.9554H21.1931C18.9553 68.9502 17.1429 67.1345 17.1429 64.8955V19.9955Z" fill="#47B7D1"/>
<path d="M17.1429 19.9955H24.5115C26.7537 19.9955 28.5714 21.8132 28.5714 24.0555V68.9554H21.2028C18.9606 68.9554 17.1429 67.1377 17.1429 64.8955V19.9955Z" fill="#44588C"/>
<path fill-rule="evenodd" clip-rule="evenodd" d="M57.4286 28.5714H70.6207C72.8026 28.5714 74.5714 30.3402 74.5714 32.5222V65.0047C74.5714 67.1866 72.8026 68.9554 70.6207 68.9554H49.9508C49.9471 68.9554 49.9434 68.9554 49.9397 68.9554H53.4778C55.6598 68.9554 57.4286 67.1866 57.4286 65.0047V28.5714Z" fill="#9D72B3"/>
<path d="M57.4286 28.5714H49.9508C47.7688 28.5714 46 30.3402 46 32.5222V68.9554H53.4778C55.6598 68.9554 57.4286 67.1866 57.4286 65.0047V28.5714Z" fill="#7B3287"/>
<path d="M113.376 30.7608C112.143 29.8144 110.365 29.3412 108.042 29.3412C105.03 29.3412 102.506 30.7608 100.47 33.6002C98.4625 36.4396 97.4587 40.3114 97.4587 45.2158V67.6725H90.4033V23.6194H97.4587V32.6968H97.6308C98.6346 29.5993 100.169 27.1901 102.234 25.4693C104.299 23.7198 106.608 22.8451 109.16 22.8451C110.996 22.8451 112.401 23.0458 113.376 23.4473V30.7608Z" fill="#E640A5"/>
<path d="M148.163 67.6725H141.107V60.7892H140.935C137.866 66.0664 133.349 68.705 127.384 68.705C122.996 68.705 119.554 67.5435 117.059 65.2203C114.592 62.8972 113.359 59.8141 113.359 55.9709C113.359 47.7396 118.206 42.95 127.9 41.602L141.107 39.7522C141.107 32.2666 138.082 28.5238 132.03 28.5238C126.724 28.5238 121.935 30.3306 117.661 33.9444V26.7169C121.992 23.9636 126.982 22.5869 132.632 22.5869C142.986 22.5869 148.163 28.0649 148.163 39.0208V67.6725ZM141.107 45.3878L130.481 46.8505C127.212 47.3094 124.745 48.1268 123.082 49.3027C121.418 50.4499 120.587 52.5006 120.587 55.4547C120.587 57.6057 121.347 59.3695 122.867 60.7462C124.415 62.0942 126.466 62.7682 129.019 62.7682C132.518 62.7682 135.4 61.5493 137.666 59.1114C139.96 56.6449 141.107 53.5331 141.107 49.776V45.3878Z" fill="#E640A5"/>
<path d="M187.079 65.6506C183.695 67.6869 179.68 68.705 175.033 68.705C168.752 68.705 163.676 66.6687 159.804 62.5961C155.961 58.4948 154.039 53.1889 154.039 46.6785C154.039 39.4223 156.119 33.6002 160.277 29.2121C164.436 24.7953 169.986 22.5869 176.926 22.5869C180.798 22.5869 184.211 23.3039 187.165 24.738V31.9654C183.896 29.671 180.397 28.5238 176.668 28.5238C172.165 28.5238 168.466 30.1442 165.569 33.3851C162.701 36.5973 161.267 40.8277 161.267 46.0762C161.267 51.2387 162.615 55.3113 165.311 58.294C168.035 61.2768 171.678 62.7682 176.238 62.7682C180.081 62.7682 183.695 61.4919 187.079 58.9393V65.6506Z" fill="#E640A5"/>
<path d="M228.749 47.4098H197.645C197.76 52.3142 199.079 56.1 201.603 58.7673C204.127 61.4345 207.597 62.7682 212.014 62.7682C216.976 62.7682 221.536 61.1334 225.694 57.8638V64.489C221.823 67.2997 216.703 68.705 210.336 68.705C204.112 68.705 199.222 66.7117 195.666 62.7252C192.11 58.7099 190.332 53.0742 190.332 45.8181C190.332 38.9634 192.267 33.3851 196.139 29.083C200.04 24.7523 204.873 22.5869 210.637 22.5869C216.402 22.5869 220.862 24.4512 224.017 28.1796C227.172 31.9081 228.749 37.0849 228.749 43.71V47.4098ZM221.521 41.43C221.493 37.3573 220.503 34.1882 218.553 31.9224C216.631 29.6566 213.95 28.5238 210.508 28.5238C207.181 28.5238 204.356 29.714 202.033 32.0945C199.71 34.475 198.276 37.5868 197.731 41.43H221.521Z" fill="#E640A5"/>
<path d="M275.446 67.6725H268.391V60.1869H268.219C264.949 65.8657 259.902 68.705 253.076 68.705C247.54 68.705 243.109 66.7404 239.782 62.8112C236.484 58.8533 234.835 53.4757 234.835 46.6785C234.835 39.3937 236.67 33.5572 240.341 29.1691C244.013 24.781 248.903 22.5869 255.012 22.5869C261.063 22.5869 265.466 24.9674 268.219 29.7284H268.391V2.4533H275.446V67.6725ZM268.391 47.754V41.2579C268.391 37.7015 267.215 34.6901 264.863 32.2236C262.511 29.757 259.529 28.5238 255.915 28.5238C251.613 28.5238 248.229 30.1012 245.762 33.256C243.296 36.4109 242.062 40.7703 242.062 46.3343C242.062 51.4107 243.238 55.426 245.59 58.3801C247.97 61.3055 251.154 62.7682 255.141 62.7682C259.07 62.7682 262.253 61.3485 264.691 58.5091C267.158 55.6698 268.391 52.0847 268.391 47.754Z" fill="#636363"/>
<path d="M288.938 12.4341C287.676 12.4341 286.6 12.0039 285.711 11.1435C284.822 10.283 284.377 9.19319 284.377 7.87389C284.377 6.55459 284.822 5.46474 285.711 4.60433C286.6 3.71523 287.676 3.27069 288.938 3.27069C290.228 3.27069 291.318 3.71523 292.207 4.60433C293.125 5.46474 293.584 6.55459 293.584 7.87389C293.584 9.13583 293.125 10.2113 292.207 11.1004C291.318 11.9895 290.228 12.4341 288.938 12.4341ZM292.379 67.6725H285.324V23.6194H292.379V67.6725Z" fill="#636363"/>
<path d="M325.23 30.7609C323.996 29.8144 322.218 29.3412 319.895 29.3412C316.884 29.3412 314.36 30.7609 312.324 33.6002C310.316 36.4396 309.312 40.3114 309.312 45.2158V67.6725H302.257V23.6194H309.312V32.6968H309.484C310.488 29.5993 312.022 27.1901 314.087 25.4693C316.152 23.7198 318.461 22.8451 321.014 22.8451C322.849 22.8451 324.255 23.0458 325.23 23.4473V30.7609Z" fill="#636363"/>
<path d="M363.888 47.4098H332.784C332.899 52.3142 334.218 56.1 336.742 58.7673C339.266 61.4345 342.736 62.7682 347.153 62.7682C352.115 62.7682 356.675 61.1334 360.834 57.8638V64.489C356.962 67.2997 351.842 68.705 345.475 68.705C339.252 68.705 334.362 66.7117 330.805 62.7252C327.249 58.7099 325.471 53.0742 325.471 45.8181C325.471 38.9634 327.407 33.3851 331.278 29.083C335.179 24.7523 340.012 22.5869 345.776 22.5869C351.541 22.5869 356.001 24.4512 359.156 28.1796C362.311 31.9081 363.888 37.0849 363.888 43.7101V47.4098ZM356.661 41.43C356.632 37.3573 355.642 34.1882 353.692 31.9224C351.771 29.6567 349.089 28.5238 345.647 28.5238C342.32 28.5238 339.495 29.714 337.172 32.0945C334.849 34.475 333.415 37.5868 332.87 41.43H356.661Z" fill="#636363"/>
<path d="M400.223 65.6506C396.839 67.6869 392.824 68.705 388.178 68.705C381.896 68.705 376.82 66.6687 372.948 62.5961C369.105 58.4948 367.183 53.1889 367.183 46.6785C367.183 39.4223 369.263 33.6002 373.421 29.2121C377.58 24.7953 383.13 22.5869 390.07 22.5869C393.942 22.5869 397.355 23.3039 400.309 24.738V31.9654C397.04 29.671 393.541 28.5238 389.812 28.5238C385.309 28.5238 381.61 30.1442 378.713 33.3851C375.845 36.5973 374.411 40.8277 374.411 46.0762C374.411 51.2387 375.759 55.3113 378.455 58.294C381.179 61.2768 384.822 62.7682 389.382 62.7682C393.225 62.7682 396.839 61.4919 400.223 58.9393V65.6506Z" fill="#636363"/>
<path d="M426.922 67.2423C425.258 68.1601 423.064 68.619 420.34 68.619C412.625 68.619 408.767 64.3169 408.767 55.7128V29.6423H401.196V23.6194H408.767V12.8643L415.823 10.5842V23.6194H426.922V29.6423H415.823V54.4652C415.823 57.4193 416.324 59.5273 417.328 60.7892C418.332 62.0512 419.996 62.6821 422.319 62.6821C424.097 62.6821 425.631 62.1946 426.922 61.2194V67.2423Z" fill="#636363"/>
<path d="M450.351 68.705C443.84 68.705 438.635 66.6544 434.734 62.5531C430.863 58.4231 428.927 52.9595 428.927 46.1622C428.927 38.7627 430.949 32.9836 434.993 28.8249C439.036 24.6663 444.5 22.5869 451.383 22.5869C457.951 22.5869 463.071 24.6089 466.742 28.6528C470.442 32.6968 472.291 38.3038 472.291 45.4739C472.291 52.5006 470.298 58.1363 466.312 62.381C462.354 66.597 457.033 68.705 450.351 68.705ZM450.867 28.5238C446.336 28.5238 442.751 30.0725 440.112 33.17C437.473 36.2388 436.154 40.4835 436.154 45.9041C436.154 51.1239 437.488 55.2396 440.155 58.251C442.822 61.2625 446.393 62.7682 450.867 62.7682C455.427 62.7682 458.926 61.2911 461.364 58.3371C463.831 55.383 465.064 51.1813 465.064 45.732C465.064 40.2254 463.831 35.9807 461.364 32.9979C458.926 30.0152 455.427 28.5238 450.867 28.5238Z" fill="#636363"/>
<path d="M502.13 30.7609C500.897 29.8144 499.119 29.3412 496.796 29.3412C493.785 29.3412 491.261 30.7609 489.224 33.6002C487.217 36.4396 486.213 40.3114 486.213 45.2158V67.6725H479.157V23.6194H486.213V32.6968H486.385C487.389 29.5993 488.923 27.1901 490.988 25.4693C493.053 23.7198 495.362 22.8451 497.914 22.8451C499.75 22.8451 501.155 23.0458 502.13 23.4473V30.7609Z" fill="#636363"/>
<path d="M502.716 66.0808V58.5091C506.559 61.3485 510.789 62.7682 515.407 62.7682C521.602 62.7682 524.699 60.7032 524.699 56.5732C524.699 55.3973 524.427 54.4078 523.882 53.6048C523.365 52.7731 522.648 52.0417 521.731 51.4107C520.842 50.7798 519.78 50.2205 518.547 49.7329C517.343 49.2167 516.038 48.6861 514.632 48.1412C512.682 47.3668 510.961 46.5924 509.47 45.8181C508.007 45.015 506.774 44.1259 505.77 43.1508C504.795 42.147 504.049 41.0141 503.533 39.7522C503.045 38.4902 502.802 37.0132 502.802 35.321C502.802 33.256 503.275 31.4348 504.221 29.8574C505.168 28.2513 506.43 26.9177 508.007 25.8565C509.584 24.7666 511.377 23.9493 513.385 23.4043C515.421 22.8594 517.515 22.5869 519.666 22.5869C523.48 22.5869 526.893 23.2466 529.905 24.5659V31.7073C526.664 29.585 522.935 28.5238 518.719 28.5238C517.4 28.5238 516.21 28.6815 515.149 28.997C514.087 29.2838 513.17 29.6997 512.395 30.2446C511.649 30.7895 511.062 31.4492 510.631 32.2236C510.23 32.9692 510.029 33.801 510.029 34.7187C510.029 35.866 510.23 36.8268 510.631 37.6011C511.062 38.3755 511.678 39.0638 512.481 39.6661C513.284 40.2684 514.259 40.8133 515.407 41.3009C516.554 41.7885 517.859 42.3191 519.321 42.8927C521.272 43.6384 523.021 44.4127 524.57 45.2158C526.119 45.9901 527.438 46.8792 528.528 47.8831C529.618 48.8582 530.45 49.9911 531.023 51.2817C531.625 52.5723 531.927 54.1067 531.927 55.8849C531.927 58.0646 531.439 59.9575 530.464 61.5636C529.517 63.1697 528.241 64.5033 526.635 65.5645C525.029 66.6257 523.179 67.4144 521.085 67.9306C518.992 68.4469 516.798 68.705 514.503 68.705C509.972 68.705 506.042 67.8303 502.716 66.0808Z" fill="#636363"/>
<path d="M565.817 39.9797H562.126V25.6096H545.822V39.9797H542.131V8.47095H545.822V22.2917H562.126V8.47095H565.817V39.9797Z" fill="#E640A5"/>
<path d="M586.779 40.5071C582.326 40.5071 578.745 39.0349 576.035 36.0906C573.354 33.1462 572.014 29.3157 572.014 24.5989C572.014 19.5159 573.383 15.4729 576.123 12.47C578.876 9.45239 582.604 7.9436 587.307 7.9436C591.643 7.9436 595.144 9.40845 597.81 12.3381C600.476 15.2678 601.809 19.0984 601.809 23.8298C601.809 28.9714 600.446 33.0364 597.722 36.0247C597.077 36.7424 596.389 37.3577 595.656 37.8704L604.511 44.2205H597.81L591.877 39.782C590.324 40.2654 588.625 40.5071 586.779 40.5071ZM587.043 11.2834C583.732 11.2834 581.044 12.4773 578.979 14.865C576.914 17.2527 575.881 20.3875 575.881 24.2693C575.881 28.1365 576.884 31.2639 578.891 33.6516C580.913 36.01 583.542 37.1892 586.779 37.1892C590.236 37.1892 592.961 36.0613 594.953 33.8054C596.945 31.5496 597.941 28.3928 597.941 24.3352C597.941 20.1604 596.975 16.9451 595.041 14.6892C593.107 12.4187 590.441 11.2834 587.043 11.2834Z" fill="#E640A5"/>
</svg>
