<?xml version="1.0" standalone="no"?>
<!DOCTYPE svg PUBLIC "-//W3C//DTD SVG 20010904//EN"
 "http://www.w3.org/TR/2001/REC-SVG-20010904/DTD/svg10.dtd">
<svg version="1.0" xmlns="http://www.w3.org/2000/svg"
 width="600.000000pt" height="600.000000pt" viewBox="0 0 600.000000 600.000000"
 preserveAspectRatio="xMidYMid meet">
<metadata>
Created by potrace 1.14, written by Peter Selinger 2001-2017
</metadata>
<g transform="translate(0.000000,600.000000) scale(0.100000,-0.100000)"
fill="#000000" stroke="none">
<path d="M1829 5606 c-2 -2 -31 -6 -64 -9 -175 -17 -321 -130 -379 -295 -23
-65 -28 -107 -26 -250 0 -35 -2 -67 -5 -72 -3 -5 -2 -11 2 -13 5 -3 6 -41 3
-85 -3 -44 -2 -96 1 -116 3 -19 2 -40 -2 -47 -4 -6 -3 -25 1 -40 5 -16 5 -31
0 -34 -5 -3 -5 -18 -1 -33 6 -26 6 -48 -2 -117 -2 -16 0 -42 4 -57 4 -15 4
-30 -1 -33 -4 -3 -5 -20 -1 -37 7 -32 6 -57 -2 -108 -2 -14 -1 -37 4 -52 5
-17 3 -30 -4 -37 -7 -5 -81 -8 -170 -8 -86 1 -157 -2 -157 -6 0 -4 -7 -4 -17
1 -9 5 -29 6 -44 2 -15 -5 -30 -6 -33 -2 -9 9 -140 9 -153 -1 -6 -4 -14 -4
-17 2 -4 7 -15 7 -30 1 -13 -5 -26 -6 -30 -3 -9 9 -156 9 -156 0 0 -4 -7 -4
-17 1 -9 6 -29 6 -45 2 -15 -5 -30 -5 -32 -2 -9 15 -179 2 -245 -19 -68 -22
-154 -99 -177 -159 -3 -8 -11 -24 -17 -35 -17 -29 -23 -3365 -7 -3445 27 -131
138 -229 276 -248 32 -4 1263 -7 2734 -7 2819 1 2703 -1 2785 44 52 28 113
100 136 159 l22 57 2 1340 c1 1414 1 1405 -43 1474 -29 45 -66 83 -102 106
-77 49 -79 49 -685 50 l-570 0 -2 30 c-1 17 -2 57 -2 90 0 33 0 71 0 85 0 14
0 61 0 105 0 76 0 88 -2 118 0 6 0 30 0 52 1 22 1 47 0 55 0 8 -1 58 0 110 0
52 0 104 0 115 0 11 0 45 0 75 0 30 0 69 0 85 -1 17 -1 53 0 80 0 28 1 57 0
65 0 8 0 47 0 85 0 88 0 91 0 173 -1 37 0 85 1 107 2 22 2 48 2 58 -1 26 -1
175 0 190 2 28 -12 105 -27 147 -46 131 -142 226 -275 276 -27 10 -85 18 -143
20 -54 2 -102 6 -107 9 -6 4 -10 2 -10 -4 0 -6 -11 -7 -27 -3 -16 4 -39 6 -53
5 -33 -3 -216 -6 -270 -4 -8 0 -40 0 -70 0 -30 0 -66 0 -80 1 -14 1 -31 1 -37
1 -17 -1 -31 -1 -95 -1 -29 0 -66 -1 -83 -3 -16 -1 -42 1 -57 5 -16 3 -28 3
-28 -2 0 -5 -12 -5 -27 -2 -16 4 -39 6 -53 5 -47 -4 -95 -6 -120 -4 -14 1 -33
1 -42 1 -16 -1 -45 -1 -105 -1 -10 0 -47 0 -83 0 -36 0 -69 0 -75 0 -42 1
-186 0 -210 -2 -16 -1 -42 1 -57 5 -16 3 -28 3 -28 -2 0 -5 -12 -5 -27 -2 -16
4 -39 7 -53 6 -14 -2 -37 -3 -52 -3 -16 -1 -40 -1 -55 -2 -16 0 -39 -1 -53 -3
-14 -1 -37 2 -52 6 -16 3 -28 3 -28 -2 0 -5 -12 -5 -27 -2 -16 4 -41 6 -58 5
-58 -5 -144 -5 -153 1 -5 3 -11 4 -13 2z"/>
</g>
</svg>
