<svg height="512pt" viewBox="0 0 512 512" width="512pt" xmlns="http://www.w3.org/2000/svg"><path d="m492 321c-1.910156 0-3.75.285156-5.5.785156-1.75-.5-3.589844-.785156-5.5-.785156h-134c-6.460938 0-12.519531 3.117188-16.273438 8.375l-24.019531 33.625h-104.414062l-24.019531-33.625c-3.753907-5.257812-9.820313-8.375-16.277344-8.375h-91.996094v-101c0-11.027344 8.972656-20 20-20h332c11.027344 0 20 8.972656 20 20v21c0 11.046875 8.953125 20 20 20s20-8.953125 20-20v-21c0-17.757812-7.761719-33.734375-20.0625-44.730469.027344-.421875.0625-.839843.0625-1.269531v-34c0-17.730469-7.734375-33.679688-20-44.671875v-35.328125c0-33.085938-26.914062-60-60-60h-252c-33.085938 0-60 26.914062-60 60v35.328125c-12.265625 10.992187-20 26.941406-20 44.671875v30c0 1.660156.222656 3.261719.605469 4.804688-12.613281 11.003906-20.605469 27.179687-20.605469 45.195312v101h-1c-1.550781 0-3.050781.191406-4.5.527344-1.449219-.335938-2.949219-.527344-4.5-.527344-11.046875 0-20 8.953125-20 20v91c0 44.113281 35.886719 80 80 80h352c44.113281 0 80-35.886719 80-80v-91c0-11.046875-8.953125-20-20-20zm-382-261c0-11.027344 8.972656-20 20-20h252c11.027344 0 20 8.972656 20 20v20h-292zm-20 80c0-11.027344 8.972656-20 20-20h292c11.027344 0 20 8.972656 20 20v20h-332zm342 332h-352c-22.054688 0-40-17.945312-40-40v-71h111.707031l24.019531 33.625c3.753907 5.257812 9.8125 8.375 16.273438 8.375h125c6.460938 0 12.519531-3.117188 16.273438-8.375l24.019531-33.625h114.707031v71c0 22.054688-17.945312 40-40 40zm0 0"/></svg>