<svg width="612" height="612" viewBox="0 0 612 612" fill="none" xmlns="http://www.w3.org/2000/svg">
<g clip-path="url(#clip0_609:2)">
<path d="M568.286 524.571C568.286 548.33 548.308 568.286 524.571 568.286L85.986 569.007C62.227 569.007 42.993 549.751 42.993 526.014L43.714 87.429C43.714 63.67 63.692 43.715 87.428 43.715H327.857V7.58376e-06H87.429C39.933 7.58376e-06 0 48.545 0 96.019V525.993C0 573.51 38.49 612 85.986 612H515.96C563.455 612 612 572.067 612 524.571V284.143H568.286V524.571V524.571ZM589.662 7.58376e-06H437.142C424.749 0.0220076 415.307 10.032 415.286 21.857C415.264 33.682 424.75 43.736 437.142 43.714L533.183 43.014L203.424 357.539C194.703 365.867 194.703 379.352 203.424 387.658C212.145 395.986 226.287 395.986 235.007 387.658L567.63 70.424L568.286 174.858C568.264 186.682 577.75 196.737 590.142 196.715C602.536 196.693 611.978 186.682 611.999 174.858V21.311C612.021 9.48601 602.055 -0.0219924 589.662 7.58376e-06Z" fill="#36B0BB"/>
</g>
<defs>
<clipPath id="clip0_609:2">
<rect width="612" height="612" fill="white"/>
</clipPath>
</defs>
</svg>
