<svg width="512" height="512" viewBox="0 0 512 512" fill="none" xmlns="http://www.w3.org/2000/svg">
<path d="M447.398 263.756C444.619 263.756 441.868 263.206 439.303 262.138C436.738 261.069 434.41 259.503 432.453 257.529L289.439 114.121C287.482 112.159 285.93 109.831 284.873 107.269C283.816 104.707 283.274 101.963 283.277 99.1914C283.281 96.4202 283.831 93.6769 284.895 91.1182C285.96 88.5596 287.518 86.2357 289.481 84.2793L319.142 54.7079C321.096 52.7497 323.418 51.1974 325.975 50.1406C328.532 49.0838 331.272 48.5432 334.038 48.5501V48.5501C336.812 48.5481 339.559 49.0976 342.119 50.1667C344.678 51.2357 347 52.8028 348.949 54.7771L491.963 198.213C493.92 200.175 495.472 202.503 496.529 205.065C497.586 207.626 498.128 210.371 498.125 213.142C498.121 215.914 497.571 218.657 496.507 221.216C495.442 223.774 493.884 226.098 491.921 228.054L462.26 257.633C458.312 261.562 452.967 263.764 447.398 263.756V263.756ZM334.038 62.381C333.087 62.379 332.144 62.565 331.264 62.9284C330.384 63.2917 329.585 63.8251 328.912 64.4982L299.25 94.0973C298.575 94.7719 298.04 95.5728 297.675 96.4543C297.31 97.3357 297.122 98.2805 297.122 99.2346C297.122 100.189 297.31 101.133 297.675 102.015C298.04 102.896 298.575 103.697 299.25 104.372V104.372L442.264 247.815C443.628 249.174 445.476 249.937 447.402 249.937C449.327 249.937 451.175 249.174 452.539 247.815L482.2 218.237C482.875 217.562 483.41 216.761 483.775 215.88C484.14 214.998 484.328 214.053 484.328 213.099C484.328 212.145 484.14 211.2 483.775 210.319C483.41 209.437 482.875 208.637 482.2 207.962L339.186 64.5189C338.514 63.841 337.714 63.303 336.833 62.9361C335.952 62.5691 335.007 62.3804 334.052 62.381H334.038Z" fill="#4A4A4A"/>
<path d="M64.512 269.146C61.7334 269.152 58.9815 268.604 56.4168 267.535C53.8521 266.466 51.526 264.896 49.5741 262.919L20.0026 233.285C18.0425 231.322 16.489 228.991 15.4311 226.426C14.3732 223.861 13.8316 221.112 13.8374 218.338C13.8432 215.563 14.3962 212.817 15.4648 210.257C16.5334 207.696 18.0966 205.372 20.0649 203.416L163.487 60.4229C167.452 56.475 172.821 54.262 178.416 54.2698C184.011 54.2775 189.375 56.5055 193.328 60.4644L222.9 90.1328C226.845 94.0993 229.056 99.4689 229.047 105.063C229.038 110.658 226.81 116.02 222.851 119.974L79.4154 262.995C77.4599 264.953 75.1363 266.504 72.5784 267.56C70.0206 268.616 67.2791 269.155 64.512 269.146V269.146ZM173.257 70.2201L29.8136 213.241C29.139 213.916 28.6038 214.717 28.2386 215.598C27.8735 216.48 27.6856 217.424 27.6856 218.378C27.6856 219.332 27.8735 220.277 28.2386 221.159C28.6038 222.04 29.139 222.841 29.8136 223.516L59.3851 253.184C60.0558 253.862 60.8544 254.4 61.7344 254.767C62.6144 255.134 63.5585 255.322 64.512 255.322C65.464 255.325 66.4071 255.139 67.287 254.776C68.1669 254.412 68.9663 253.878 69.6389 253.205L213.103 110.177C214.462 108.813 215.225 106.965 215.225 105.04C215.225 103.114 214.462 101.267 213.103 99.9023L183.531 70.2339C182.167 68.8747 180.32 68.1116 178.394 68.1116C176.468 68.1116 174.621 68.8747 173.257 70.2339V70.2201Z" fill="#4A4A4A"/>
<path d="M391.825 355.107C387.662 355.113 383.539 354.298 379.692 352.707C375.845 351.116 372.35 348.781 369.408 345.835L353.494 329.922C352.234 328.617 351.537 326.869 351.553 325.055C351.568 323.241 352.296 321.505 353.579 320.223C354.862 318.94 356.597 318.212 358.411 318.196C360.225 318.181 361.973 318.878 363.278 320.138L379.191 336.052C382.544 339.404 387.091 341.286 391.831 341.285C396.572 341.285 401.118 339.401 404.47 336.048C407.821 332.696 409.704 328.149 409.703 323.409C409.703 318.668 407.819 314.122 404.466 310.77L291.245 197.542V242.854C291.245 251.318 287.883 259.435 281.898 265.42C275.913 271.405 267.795 274.768 259.331 274.768C250.867 274.768 242.75 271.405 236.765 265.42C230.78 259.435 227.418 251.318 227.418 242.854V147.878C227.419 146.672 227.734 145.488 228.334 144.442C228.933 143.395 229.796 142.524 230.836 141.914C258.714 126.267 291.493 121.788 322.546 129.384C323.454 129.547 324.321 129.889 325.094 130.392C325.868 130.894 326.534 131.547 327.052 132.31C327.569 133.074 327.929 133.933 328.11 134.838C328.291 135.743 328.289 136.674 328.105 137.578C327.92 138.482 327.557 139.34 327.035 140.102C326.514 140.863 325.846 141.513 325.071 142.012C324.295 142.511 323.427 142.851 322.518 143.01C321.609 143.169 320.678 143.144 319.779 142.938C293.378 136.332 265.478 139.528 241.256 151.933V242.854C241.256 247.648 243.16 252.246 246.55 255.635C249.94 259.025 254.537 260.93 259.331 260.93C264.125 260.93 268.723 259.025 272.113 255.635C275.503 252.246 277.407 247.648 277.407 242.854V180.861C277.405 179.492 277.808 178.153 278.567 177.014C279.325 175.875 280.404 174.986 281.668 174.46C282.931 173.935 284.322 173.795 285.665 174.06C287.008 174.325 288.242 174.982 289.211 175.948L414.25 300.973C418.687 305.406 421.71 311.056 422.935 317.207C424.16 323.359 423.532 329.735 421.131 335.53C418.73 341.324 414.664 346.276 409.447 349.759C404.23 353.241 398.098 355.098 391.825 355.093V355.107Z" fill="#4A4A4A"/>
<path d="M354.207 391.971C349.806 391.978 345.447 391.116 341.38 389.433C337.313 387.751 333.619 385.281 330.51 382.166L318.27 369.899C317.01 368.594 316.313 366.847 316.328 365.032C316.344 363.218 317.072 361.483 318.355 360.2C319.637 358.917 321.373 358.19 323.187 358.174C325.001 358.158 326.749 358.856 328.054 360.116L340.321 372.383C344.071 375.959 349.053 377.954 354.235 377.954C359.416 377.954 364.399 375.959 368.149 372.383C371.833 368.688 373.901 363.683 373.901 358.466C373.901 353.248 371.833 348.243 368.149 344.548L355.882 332.281C354.621 330.976 353.924 329.228 353.94 327.414C353.955 325.6 354.683 323.865 355.966 322.582C357.249 321.299 358.984 320.572 360.798 320.556C362.612 320.54 364.36 321.237 365.665 322.498L377.932 334.765C382.623 339.45 385.819 345.422 387.114 351.925C388.409 358.428 387.746 365.168 385.208 371.294C382.67 377.419 378.371 382.653 372.856 386.334C367.341 390.015 360.858 391.977 354.228 391.971H354.207Z" fill="#4A4A4A"/>
<path d="M318.803 428.025C314.608 428.034 310.452 427.213 306.575 425.61C302.698 424.007 299.177 421.653 296.213 418.685L292.387 414.858C291.726 414.22 291.199 413.457 290.836 412.613C290.473 411.768 290.283 410.86 290.275 409.942C290.267 409.023 290.442 408.112 290.79 407.262C291.137 406.411 291.651 405.639 292.301 404.989C292.95 404.34 293.723 403.826 294.573 403.478C295.424 403.13 296.335 402.955 297.253 402.963C298.172 402.971 299.08 403.162 299.924 403.524C300.768 403.887 301.532 404.414 302.17 405.075L305.996 408.901C309.431 412.096 313.971 413.834 318.661 413.75C323.351 413.665 327.825 411.764 331.142 408.447C334.459 405.13 336.36 400.656 336.445 395.966C336.529 391.276 334.791 386.736 331.596 383.301L318.27 369.906C317.01 368.601 316.313 366.853 316.328 365.039C316.344 363.225 317.072 361.49 318.355 360.207C319.637 358.924 321.373 358.197 323.187 358.181C325.001 358.165 326.749 358.862 328.054 360.123L341.435 373.504C345.906 377.97 348.951 383.662 350.184 389.86C351.418 396.058 350.785 402.482 348.366 408.32C345.946 414.158 341.849 419.146 336.592 422.654C331.336 426.162 325.157 428.031 318.838 428.025H318.803Z" fill="#4A4A4A"/>
<path d="M283.406 463.457C279.213 463.465 275.06 462.642 271.187 461.035C267.315 459.428 263.799 457.07 260.843 454.096L247.441 440.735C246.181 439.43 245.484 437.682 245.499 435.868C245.515 434.054 246.243 432.319 247.526 431.036C248.808 429.753 250.544 429.026 252.358 429.01C254.172 428.994 255.92 429.691 257.225 430.952L270.606 444.326C274.055 447.617 278.639 449.453 283.406 449.453C288.173 449.453 292.757 447.617 296.206 444.326C299.589 440.925 301.489 436.323 301.489 431.526C301.489 426.729 299.589 422.127 296.206 418.726L292.38 414.907C291.703 414.273 291.161 413.51 290.785 412.662C290.409 411.815 290.207 410.901 290.191 409.974C290.175 409.047 290.346 408.126 290.693 407.266C291.04 406.407 291.557 405.626 292.211 404.969C292.866 404.313 293.646 403.795 294.505 403.446C295.364 403.097 296.284 402.925 297.211 402.938C298.138 402.952 299.053 403.152 299.901 403.526C300.75 403.9 301.514 404.441 302.149 405.117L305.982 408.943C310.453 413.41 313.498 419.103 314.732 425.301C315.967 431.5 315.335 437.925 312.916 443.764C310.498 449.603 306.402 454.593 301.146 458.104C295.891 461.614 289.712 463.487 283.392 463.485L283.406 463.457Z" fill="#4A4A4A"/>
<path d="M223.571 461.727C219.571 461.73 215.609 460.944 211.913 459.414C208.217 457.883 204.859 455.639 202.032 452.809L200.04 450.816C194.328 445.092 191.121 437.336 191.121 429.25C191.121 421.164 194.328 413.408 200.04 407.683L216.348 391.376C222.072 385.664 229.828 382.457 237.914 382.457C246 382.457 253.756 385.664 259.48 391.376L261.473 393.368C267.183 399.093 270.389 406.849 270.389 414.935C270.389 423.02 267.183 430.776 261.473 436.501L245.137 452.809C242.307 455.642 238.945 457.889 235.244 459.419C231.543 460.95 227.576 461.734 223.571 461.727ZM237.886 396.288C235.704 396.283 233.541 396.708 231.523 397.539C229.505 398.37 227.67 399.591 226.124 401.131L209.816 417.439C206.697 420.567 204.946 424.805 204.946 429.222C204.946 433.64 206.697 437.877 209.816 441.005L211.809 442.998C214.937 446.117 219.174 447.868 223.592 447.868C228.009 447.868 232.246 446.117 235.375 442.998L251.676 426.69C254.796 423.562 256.549 419.325 256.549 414.907C256.549 410.489 254.796 406.251 251.676 403.124L249.683 401.131C248.133 399.586 246.293 398.363 244.268 397.532C242.244 396.701 240.075 396.278 237.886 396.288V396.288Z" fill="#4A4A4A"/>
<path d="M188.374 426.205C184.37 426.212 180.403 425.428 176.702 423.897C173.001 422.367 169.639 420.12 166.808 417.287L161.82 412.312C156.108 406.587 152.9 398.83 152.9 390.742C152.9 382.655 156.108 374.898 161.82 369.173L177.885 353.107C183.61 347.396 191.365 344.188 199.452 344.188C207.538 344.188 215.294 347.396 221.018 353.107L226.006 358.082C231.715 363.809 234.92 371.565 234.92 379.651C234.92 387.738 231.715 395.494 226.006 401.221L209.934 417.287C207.105 420.12 203.744 422.366 200.044 423.897C196.344 425.427 192.378 426.212 188.374 426.205V426.205ZM199.445 358.019C197.262 358.014 195.1 358.439 193.082 359.27C191.063 360.101 189.229 361.322 187.683 362.863L171.589 378.977C168.469 382.104 166.716 386.342 166.716 390.76C166.716 395.178 168.469 399.415 171.589 402.543L176.578 407.517C179.704 410.638 183.94 412.39 188.357 412.39C192.774 412.39 197.01 410.638 200.137 407.517L216.209 391.452C219.328 388.323 221.08 384.086 221.08 379.669C221.08 375.251 219.328 371.014 216.209 367.886L211.221 362.911C209.676 361.365 207.841 360.138 205.822 359.302C203.802 358.467 201.637 358.038 199.452 358.04L199.445 358.019Z" fill="#4A4A4A"/>
<path d="M150.009 387.923C143.977 387.923 138.08 386.135 133.064 382.783C128.049 379.432 124.14 374.669 121.831 369.096C119.523 363.523 118.919 357.39 120.096 351.474C121.272 345.558 124.177 340.123 128.443 335.858L144.509 319.792C150.228 314.073 157.986 310.859 166.075 310.859C174.164 310.859 181.921 314.073 187.641 319.792C193.361 325.512 196.574 333.27 196.574 341.359C196.574 349.448 193.361 357.205 187.641 362.925L171.589 378.991C168.762 381.833 165.399 384.086 161.694 385.619C157.99 387.153 154.018 387.936 150.009 387.923V387.923ZM166.054 324.705C163.871 324.7 161.709 325.125 159.691 325.956C157.673 326.787 155.838 328.007 154.292 329.548L138.226 345.614C135.215 348.762 133.556 352.964 133.604 357.32C133.653 361.676 135.405 365.84 138.485 368.921C141.566 372.001 145.73 373.753 150.086 373.802C154.442 373.85 158.644 372.191 161.792 369.18L177.858 353.114C180.181 350.782 181.762 347.814 182.399 344.584C183.037 341.355 182.703 338.009 181.44 334.969C180.177 331.929 178.041 329.331 175.303 327.505C172.564 325.678 169.346 324.704 166.054 324.705V324.705Z" fill="#4A4A4A"/>
<path d="M116.646 354.595C110.614 354.595 104.717 352.806 99.7014 349.455C94.6857 346.104 90.7765 341.34 88.4681 335.767C86.1596 330.194 85.5556 324.062 86.7325 318.146C87.9094 312.229 90.8143 306.795 95.0798 302.53L111.146 286.443C113.979 283.61 117.343 281.363 121.045 279.83C124.747 278.297 128.714 277.508 132.721 277.508C136.728 277.509 140.696 278.298 144.397 279.832C148.099 281.365 151.462 283.613 154.295 286.447C157.128 289.28 159.376 292.644 160.909 296.346C162.442 300.048 163.231 304.015 163.23 308.022C163.23 312.029 162.44 315.997 160.907 319.698C159.373 323.4 157.125 326.764 154.292 329.597L138.226 345.662C135.399 348.505 132.035 350.758 128.331 352.291C124.627 353.824 120.655 354.607 116.646 354.595V354.595ZM132.712 291.376C130.529 291.371 128.367 291.796 126.349 292.627C124.33 293.458 122.496 294.679 120.95 296.22L104.884 312.285C101.759 315.41 100.003 319.649 100.003 324.068C100.003 328.488 101.759 332.726 104.884 335.851C108.009 338.976 112.247 340.732 116.667 340.732C121.086 340.732 125.325 338.976 128.45 335.851L144.515 319.786C146.846 317.458 148.434 314.491 149.078 311.26C149.723 308.03 149.395 304.681 148.136 301.637C146.877 298.593 144.743 295.991 142.005 294.16C139.267 292.328 136.047 291.35 132.753 291.349L132.712 291.376Z" fill="#4A4A4A"/>
<path d="M393.403 296.822C391.873 296.83 390.384 296.33 389.168 295.402C387.952 294.474 387.078 293.169 386.683 291.691C386.288 290.213 386.393 288.646 386.983 287.235C387.573 285.823 388.614 284.647 389.943 283.89C405.227 275.179 404.598 238.336 403.172 226.11C402.96 224.288 403.48 222.456 404.618 221.017C405.756 219.579 407.418 218.65 409.24 218.437C410.144 218.321 411.062 218.386 411.941 218.629C412.819 218.873 413.64 219.29 414.355 219.855C415.07 220.42 415.664 221.123 416.104 221.922C416.543 222.72 416.818 223.599 416.913 224.505C417.605 230.255 422.725 281.136 396.793 295.908C395.761 296.502 394.593 296.816 393.403 296.822V296.822Z" fill="#4A4A4A"/>
<path d="M110.198 304.114C108.879 304.114 107.587 303.737 106.475 303.027C105.363 302.317 104.478 301.305 103.922 300.108C93.6803 275.588 92.6967 248.181 101.155 222.99C101.416 222.082 101.861 221.238 102.462 220.508C103.063 219.779 103.806 219.181 104.647 218.75C105.488 218.319 106.408 218.065 107.35 218.003C108.293 217.941 109.239 218.073 110.128 218.391C111.018 218.709 111.833 219.205 112.524 219.85C113.214 220.494 113.766 221.274 114.144 222.139C114.522 223.005 114.718 223.939 114.721 224.884C114.725 225.829 114.534 226.764 114.162 227.632C107.038 249.421 107.849 273.027 116.452 294.275C116.937 295.329 117.149 296.488 117.069 297.646C116.989 298.803 116.619 299.922 115.994 300.899C115.368 301.876 114.507 302.68 113.489 303.237C112.471 303.794 111.33 304.086 110.17 304.086L110.198 304.114Z" fill="#4A4A4A"/>
<path d="M234.337 154.797C233.507 154.797 232.685 154.647 231.908 154.354C217.88 148.858 202.342 148.59 188.132 153.6C187.272 153.893 186.362 154.014 185.455 153.955C184.548 153.897 183.661 153.66 182.846 153.259C182.03 152.857 181.301 152.3 180.701 151.617C180.101 150.934 179.642 150.14 179.349 149.279C179.056 148.419 178.935 147.509 178.994 146.602C179.052 145.695 179.289 144.808 179.69 143.992C180.091 143.177 180.649 142.448 181.332 141.848C182.015 141.248 182.809 140.789 183.67 140.496C200.913 134.496 219.726 134.812 236.759 141.388C238.279 141.955 239.552 143.039 240.355 144.449C241.158 145.86 241.439 147.508 241.15 149.105C240.86 150.702 240.019 152.146 238.772 153.186C237.525 154.225 235.953 154.793 234.33 154.79L234.337 154.797Z" fill="#4A4A4A"/>
</svg>
