<svg height="512pt" viewBox="0 0 512 512" width="512pt" xmlns="http://www.w3.org/2000/svg"><path d="m512 120v130c0 11.046875-8.953125 20-20 20s-20-8.953125-20-20v-130c0-22.054688-17.945312-40-40-40h-26v20c0 11.046875-8.953125 20-20 20s-20-8.953125-20-20v-20h-91v20c0 11.046875-8.953125 20-20 20s-20-8.953125-20-20v-20h-90v20c0 11.046875-8.953125 20-20 20s-20-8.953125-20-20v-20h-25c-22.054688 0-40 17.945312-40 40v312c0 22.054688 17.945312 40 40 40h86c11.046875 0 20 8.953125 20 20s-8.953125 20-20 20h-86c-44.113281 0-80-35.886719-80-80v-312c0-44.113281 35.886719-80 80-80h25v-20c0-11.046875 8.953125-20 20-20s20 8.953125 20 20v20h90v-20c0-11.046875 8.953125-20 20-20s20 8.953125 20 20v20h91v-20c0-11.046875 8.953125-20 20-20s20 8.953125 20 20v20h26c44.113281 0 80 35.886719 80 80zm-367 90c0-11.046875-8.953125-20-20-20s-20 8.953125-20 20 8.953125 20 20 20 20-8.953125 20-20zm154 20c11.046875 0 20-8.953125 20-20s-8.953125-20-20-20-20 8.953125-20 20 8.953125 20 20 20zm87 0c11.046875 0 20-8.953125 20-20s-8.953125-20-20-20-20 8.953125-20 20 8.953125 20 20 20zm-241 67c0-11.046875-8.953125-20-20-20s-20 8.953125-20 20 8.953125 20 20 20 20-8.953125 20-20zm-20 67c-11.046875 0-20 8.953125-20 20s8.953125 20 20 20 20-8.953125 20-20-8.953125-20-20-20zm87-134c11.046875 0 20-8.953125 20-20s-8.953125-20-20-20-20 8.953125-20 20 8.953125 20 20 20zm-20 67c0 11.046875 8.953125 20 20 20s20-8.953125 20-20-8.953125-20-20-20-20 8.953125-20 20zm40 87c0-11.046875-8.953125-20-20-20s-20 8.953125-20 20 8.953125 20 20 20 20-8.953125 20-20zm47-87c0 11.046875 8.953125 20 20 20s20-8.953125 20-20-8.953125-20-20-20-20 8.953125-20 20zm183 13h-66c-11.046875 0-20 8.953125-20 20s8.953125 20 20 20h49.933594l-70.617188 70.441406c-2.195312 2.191406-5.703125 2.265625-7.988281.175782l-10.207031-9.335938c-8.886719-8.132812-20.417969-12.378906-32.445313-11.980469-12.039062.40625-23.25 5.425781-31.597656 14.167969l-61.570313 64.75c-7.613281 8.003906-7.292968 20.664062.710938 28.273438 3.871094 3.683593 8.828125 5.507812 13.777344 5.507812 5.289062 0 10.566406-2.085938 14.496094-6.21875l61.542968-64.71875c2.152344-2.257812 5.78125-2.378906 8.085938-.269531l10.203125 9.335937c18.097656 16.554688 45.875 15.957032 63.242187-1.367187l68.433594-68.265625v48.503906c0 11.046875 8.953125 20 20 20s20-8.953125 20-20v-69c0-27.570312-22.429688-50-50-50zm0 0"/></svg>