<svg width="487" height="450" viewBox="0 0 487 450" fill="none" xmlns="http://www.w3.org/2000/svg">
<path d="M395.5 117.8C390.3 86.9 375 58.7 351.6 37.3C325.6 13.5 291.8 0.399994 256.6 0.399994C229.4 0.399994 202.9 8.2 180.2 22.9C161.3 35.1 145.6 51.6 134.5 71C129.7 70.1 124.7 69.6 119.7 69.6C77.2 69.6 42.6 104.2 42.6 146.7C42.6 152.2 43.2 157.5 44.2 162.7C16.7 182.7 0 214.9 0 249.2C0 276.9 10.3 303.8 29.1 325.1C48.4 346.9 73.9 359.8 101.1 361.3C101.4 361.3 101.6 361.3 101.9 361.3H187.9C195.4 361.3 201.4 355.3 201.4 347.8C201.4 340.3 195.4 334.3 187.9 334.3H102.3C61.4 331.8 27 292.9 27 249.1C27 220.8 42.2 194.4 66.7 180.1C72.4 176.8 74.8 169.9 72.6 163.7C70.6 158.3 69.6 152.6 69.6 146.5C69.6 118.9 92.1 96.4 119.7 96.4C125.6 96.4 131.4 97.4 136.8 99.4C143.4 101.8 150.7 98.8 153.7 92.5C172.4 52.8 212.8 27.2 256.7 27.2C315.7 27.2 364.4 71.4 370 130C370.6 136.1 375.2 141 381.2 142C425.7 149.6 459.3 190.7 459.3 237.6C459.3 287.3 420.2 330.5 372 334.2H298.3C290.8 334.2 284.8 340.2 284.8 347.7C284.8 355.2 290.8 361.2 298.3 361.2H372.5C372.8 361.2 373.1 361.2 373.5 361.2C404 359 432.5 345 453.7 321.6C474.8 298.4 486.3 268.6 486.3 237.6C486.2 181.5 447.9 131.6 395.5 117.8Z" fill="#36B0BB"/>
<path d="M324.2 262C329.5 256.7 329.5 248.2 324.2 242.9L252.7 171.4C250.2 168.9 246.7 167.4 243.2 167.4C239.7 167.4 236.2 168.8 233.7 171.4L162.2 242.9C156.9 248.2 156.9 256.7 162.2 262C164.8 264.6 168.3 266 171.7 266C175.1 266 178.6 264.7 181.2 262L229.7 213.5V436.4C229.7 443.9 235.7 449.9 243.2 449.9C250.7 449.9 256.7 443.9 256.7 436.4V213.5L305.2 262C310.4 267.3 318.9 267.3 324.2 262Z" fill="#36B0BB"/>
</svg>
