<svg width="75" height="70" viewBox="0 0 75 70" fill="none" xmlns="http://www.w3.org/2000/svg">
<rect x="17" y="2" width="40" height="67" rx="5.55414" fill="#E640A5"/>
<path fill-rule="evenodd" clip-rule="evenodd" d="M17.1429 19.9955H4.05993C1.81769 19.9955 0 21.8132 0 24.0555V64.8955C0 67.1377 1.81769 68.9554 4.05993 68.9554H21.1931C18.9553 68.9502 17.1429 67.1345 17.1429 64.8955V19.9955Z" fill="#47B7D1"/>
<path d="M17.1429 19.9955H24.5115C26.7537 19.9955 28.5714 21.8132 28.5714 24.0555V68.9554H21.2028C18.9606 68.9554 17.1429 67.1377 17.1429 64.8955V19.9955Z" fill="#44588C"/>
<path fill-rule="evenodd" clip-rule="evenodd" d="M57.4286 28.5714H70.6207C72.8026 28.5714 74.5714 30.3402 74.5714 32.5222V65.0047C74.5714 67.1866 72.8026 68.9554 70.6207 68.9554H49.9508C49.9471 68.9554 49.9434 68.9554 49.9397 68.9554H53.4778C55.6598 68.9554 57.4286 67.1866 57.4286 65.0047V28.5714Z" fill="#9D72B3"/>
<path d="M57.4286 28.5714H49.9508C47.7688 28.5714 46 30.3402 46 32.5222V68.9554H53.4778C55.6598 68.9554 57.4286 67.1866 57.4286 65.0047V28.5714Z" fill="#7B3287"/>
</svg>
